<svg width="482" height="94" viewBox="0 0 482 94" fill="none" xmlns="http://www.w3.org/2000/svg">
<path d="M364.138 1.14141C364.354 0.922848 364.671 0.836842 364.967 0.916116L365.536 1.06816C368.974 1.98921 371.597 4.44485 373.304 7.63951C375.904 7.58663 378.6 7.90273 381.296 8.6252C383.993 9.34766 386.485 10.4215 388.711 11.7675C391.786 9.85406 395.286 9.039 398.724 9.96005L399.292 10.1129C399.589 10.1926 399.82 10.4253 399.898 10.7225L400.044 11.2848C401.197 15.7015 401.232 20.5957 399.926 25.4704C398.198 31.919 395.322 37.7142 390.693 41.3502C385.967 45.0619 379.704 46.2998 371.77 44.1741L371.655 44.1434C371.478 44.0965 371.261 44.0387 371.063 43.9723C370.294 43.7514 369.731 43.044 369.731 42.2029C369.731 41.1862 370.555 40.3621 371.572 40.3621C371.785 40.3621 371.992 40.3987 372.184 40.4666C372.229 40.4764 372.273 40.4858 372.32 40.4958L372.327 40.4973C372.445 40.5225 372.581 40.5513 372.73 40.5913C379.768 42.4769 384.768 41.2868 388.401 38.4332C392.131 35.504 394.712 30.5973 396.343 24.5103C397.373 20.6665 397.441 16.8379 396.717 13.3426C394.517 13.0848 392.134 13.8065 389.831 15.4833L389.266 15.8944C388.976 16.1054 388.585 16.113 388.287 15.9134L387.707 15.5246C385.564 14.0892 383.08 12.9433 380.336 12.208C377.592 11.4728 374.868 11.2232 372.294 11.3951L371.598 11.4417C371.24 11.4656 370.905 11.2636 370.759 10.9358L370.476 10.2975C369.319 7.69363 367.617 5.87753 365.582 5.00063C363.208 7.66595 361.353 11.0156 360.323 14.8595C359.817 16.745 359.447 18.3889 359.212 20.1522C359.212 20.1522 358.764 20.2074 358.353 20.2282C357.681 20.2623 356.964 20.322 356.315 20.398L356.306 20.399C353.37 20.7436 350.651 21.5058 348.15 22.6856C344.617 24.2855 341.617 26.6187 339.15 29.6852C336.683 32.685 334.783 36.3514 333.45 40.6845C332.117 44.9508 331.45 49.7505 331.45 55.0835C331.45 60.1498 332.117 64.7495 333.45 68.8826C334.783 72.949 336.683 76.4155 339.15 79.2819C341.617 82.1484 344.617 84.3483 348.15 85.8815C351.683 87.4147 355.65 88.1813 360.05 88.1813C364.45 88.1813 368.383 87.4147 371.85 85.8815C375.383 84.3483 378.383 82.1484 380.85 79.2819C383.383 76.4155 385.317 72.949 386.65 68.8826C387.983 64.7495 388.65 60.1498 388.65 55.0835C388.651 50.9432 391.085 47.997 394.95 47.997C398.816 47.997 401.65 50.6447 401.65 54.7866L401.65 54.811C401.646 60.2003 400.546 65.2575 398.35 69.9825C396.217 74.7156 393.283 78.8486 389.55 82.3817C385.817 85.8482 381.417 88.6146 376.35 90.6812C371.283 92.681 365.85 93.681 360.05 93.681C354.25 93.681 348.817 92.681 343.75 90.6812C338.683 88.6146 334.283 85.8482 330.55 82.3817C326.817 78.8486 323.85 74.7156 321.65 69.9825C319.517 65.2495 318.45 60.1832 318.45 54.7835C318.45 49.1172 319.517 43.8509 321.65 38.9846C323.783 34.1182 326.717 29.8852 330.45 26.2854C334.183 22.6856 338.583 19.8525 343.65 17.786C347.681 16.1419 351.965 15.1518 356.502 14.8157C356.579 14.5105 356.658 14.205 356.74 13.8995C358.046 9.02472 360.523 4.80369 363.73 1.55504L364.138 1.14141Z" fill="black"/>
<path d="M363.507 24.1616C363.28 23.7686 362.778 23.6339 362.384 23.8609C361.991 24.0878 361.857 24.5904 362.084 24.9835C362.988 26.5503 364.478 27.6935 366.226 28.1618C367.974 28.63 369.836 28.3849 371.402 27.4803C371.796 27.2534 371.93 26.7508 371.703 26.3577C371.476 25.9646 370.974 25.8299 370.581 26.0569C369.391 26.7435 367.978 26.9296 366.651 26.5741C365.325 26.2187 364.194 25.3509 363.507 24.1616Z" fill="black"/>
<path d="M381.86 29.0788C381.633 28.6858 381.13 28.5511 380.737 28.7781C380.344 29.005 380.209 29.5076 380.436 29.9007C381.341 31.4675 382.831 32.6107 384.578 33.0789C386.326 33.5472 388.188 33.3021 389.755 32.3975C390.148 32.1706 390.283 31.668 390.056 31.2749C389.829 30.8818 389.326 30.7471 388.933 30.974C387.744 31.6607 386.33 31.8467 385.004 31.4913C383.677 31.1359 382.546 30.2681 381.86 29.0788Z" fill="black"/>
<path d="M62.9 16H65.7L66.6 39H62.9C61.4333 33.1333 58.6 28.5333 54.4 25.2C50.2 21.8667 45.1333 20.2 39.2 20.2C35.1333 20.2 31.5 21 28.3 22.6C25.1 24.2 22.4 26.5 20.2 29.5C18 32.5 16.3 36.1667 15.1 40.5C13.9667 44.8333 13.4 49.7333 13.4 55.2C13.4 65.9333 15.6333 74.2 20.1 80C24.5667 85.7333 31.0333 88.6 39.5 88.6C52.3667 88.6 60.6333 81.7667 64.3 68.1H68.4V93H64.9L62.6 85.1C55.6 91.0333 47.1333 94 37.2 94C31.5333 94 26.4 93.1 21.8 91.3C17.2667 89.5 13.3667 86.9667 10.1 83.7C6.9 80.3667 4.4 76.3333 2.6 71.6C0.866667 66.8667 0 61.6 0 55.8C0 49.7333 0.933333 44.2 2.8 39.2C4.66667 34.2 7.26667 29.9 10.6 26.3C14 22.7 18.0333 19.9333 22.7 18C27.4333 16 32.6333 15 38.3 15C42.3 15 46.0667 15.5667 49.6 16.7C53.1333 17.8333 56.9667 19.6667 61.1 22.2L62.9 16Z" fill="black"/>
<path fill-rule="evenodd" clip-rule="evenodd" d="M122.976 65.1H96.2758C95.1424 67.8333 94.1758 70.2667 93.3758 72.4C92.5758 74.4667 91.9091 76.2667 91.3758 77.8C90.9091 79.3333 90.5758 80.6333 90.3758 81.7C90.1758 82.7667 90.0758 83.6333 90.0758 84.3C90.0758 86.1667 90.6758 87.4667 91.8758 88.2C93.0758 88.8667 95.0758 89.2 97.8758 89.2V93H73.5758V89.2C75.1091 89 76.4091 88.7333 77.4758 88.4C78.6091 88.0667 79.5758 87.6 80.3758 87C81.2424 86.4 81.9758 85.6333 82.5758 84.7C83.2424 83.7 83.8758 82.5 84.4758 81.1L110.476 16H114.776L137.476 72.4C139.009 76.1333 140.342 79.1333 141.476 81.4C142.609 83.6 143.709 85.2667 144.776 86.4C145.842 87.5333 146.976 88.2667 148.176 88.6C149.442 88.9333 150.942 89.1 152.676 89.1V93H120.076V89.1C123.609 89.1 126.042 88.7667 127.376 88.1C128.709 87.4333 129.376 86.3333 129.376 84.8C129.376 84.1333 129.342 83.5333 129.276 83C129.209 82.4 129.076 81.7667 128.876 81.1C128.742 80.4333 128.509 79.7 128.176 78.9C127.909 78.0333 127.542 77.0333 127.076 75.9L122.976 65.1ZM98.2758 60.1H121.076L109.976 30.6L98.2758 60.1Z" fill="black"/>
<path d="M218.598 35.1H222.698L221.698 16H146.198V35.1H149.898C149.964 31.5667 150.498 28.8 151.498 26.8C152.498 24.8 153.798 23.3333 155.398 22.4C157.064 21.4 158.998 20.8 161.198 20.6C163.464 20.4 165.898 20.3 168.498 20.3C170.631 20.3 172.331 20.3667 173.598 20.5C174.864 20.5667 175.831 20.7333 176.498 21C177.231 21.2667 177.698 21.6 177.898 22C178.164 22.3333 178.298 22.8 178.298 23.4V76.9C178.298 79.0333 178.131 80.8667 177.798 82.4C177.531 83.9333 176.931 85.2 175.998 86.2C175.131 87.1333 173.831 87.8667 172.098 88.4C170.364 88.8667 168.098 89.1333 165.298 89.2V93H203.098V89.2C200.298 89.1333 198.031 88.8667 196.298 88.4C194.631 87.8667 193.331 87.1333 192.398 86.2C191.531 85.2 190.931 83.9333 190.598 82.4C190.331 80.8667 190.198 79.0333 190.198 76.9V23.4C190.198 22.8 190.298 22.3333 190.498 22C190.764 21.6 191.298 21.2667 192.098 21C192.898 20.7333 194.031 20.5667 195.498 20.5C197.031 20.3667 199.031 20.3 201.498 20.3C204.364 20.3 206.831 20.5333 208.898 21C210.964 21.4667 212.664 22.2667 213.998 23.4C215.398 24.4667 216.464 25.9667 217.198 27.9C217.931 29.8333 218.398 32.2333 218.598 35.1Z" fill="black"/>
<path fill-rule="evenodd" clip-rule="evenodd" d="M228.171 93V89.2C230.704 89.1333 232.738 88.9667 234.271 88.7C235.871 88.3667 237.104 87.8 237.971 87C238.838 86.1333 239.404 85 239.671 83.6C240.004 82.1333 240.171 80.2 240.171 77.8V31.2C240.171 28.8667 240.038 27 239.771 25.6C239.571 24.1333 239.104 23 238.371 22.2C237.704 21.3333 236.704 20.7667 235.371 20.5C234.038 20.1667 232.304 19.9333 230.171 19.8V16H265.271C271.271 16 276.804 17 281.871 19C287.004 21 291.404 23.7667 295.071 27.3C298.804 30.8333 301.704 35.0333 303.771 39.9C305.838 44.7667 306.871 50.0667 306.871 55.8C306.871 61.2667 305.904 66.3 303.971 70.9C302.038 75.4333 299.304 79.3333 295.771 82.6C292.304 85.8667 288.138 88.4333 283.271 90.3C278.404 92.1 273.071 93 267.271 93H228.171ZM252.371 20.9C251.238 20.9 250.671 21.4667 250.671 22.6V76.7C250.671 84.3 255.638 88.1 265.571 88.1C274.704 88.1 281.704 85.4 286.571 80C291.438 74.5333 293.871 66.5333 293.871 56C293.871 50.4667 293.204 45.5333 291.871 41.2C290.538 36.8667 288.604 33.2 286.071 30.2C283.604 27.2 280.604 24.9 277.071 23.3C273.538 21.7 269.538 20.9 265.071 20.9H252.371Z" fill="black"/>
<path d="M479.079 16H476.279L474.479 22.2C470.346 19.6667 466.512 17.8333 462.979 16.7C459.446 15.5667 455.679 15 451.679 15C446.012 15 440.812 16 436.079 18C431.412 19.9333 427.379 22.7 423.979 26.3C420.646 29.9 418.046 34.2 416.179 39.2C414.312 44.2 413.379 49.7333 413.379 55.8C413.379 61.6 414.246 66.8667 415.979 71.6C417.779 76.3333 420.279 80.3667 423.479 83.7C426.746 86.9667 430.646 89.5 435.179 91.3C439.779 93.1 444.912 94 450.579 94C460.512 94 468.979 91.0333 475.979 85.1L478.279 93H481.779V68.1H477.679C474.012 81.7667 465.746 88.6 452.879 88.6C444.412 88.6 437.946 85.7333 433.479 80C429.012 74.2 426.779 65.9333 426.779 55.2C426.779 49.7333 427.346 44.8333 428.479 40.5C429.679 36.1667 431.379 32.5 433.579 29.5C435.779 26.5 438.479 24.2 441.679 22.6C444.879 21 448.512 20.2 452.579 20.2C458.512 20.2 463.579 21.8667 467.779 25.2C471.979 28.5333 474.812 33.1333 476.279 39H479.979L479.079 16Z" fill="black"/>
</svg>
